<svg width="100" height="40" viewBox="0 0 100 40" fill="none" xmlns="http://www.w3.org/2000/svg">
<path d="M10.6169 26.9833C5.55024 23.8167 2.43357 18.4 3.48357 12.0333C-0.149763 17.7833 0.533571 25.4667 5.53357 30.4667C7.28357 32.2167 9.3669 33.4333 11.5669 34.1333V27.5333C11.2502 27.35 10.9336 27.1667 10.6169 26.9833Z" fill="url(#paint0_linear_601_399)"/>
<path d="M14.917 15.55C19.3837 19.2833 26.017 18.7 29.767 14.2667C29.2004 12.8833 28.4004 11.5667 27.3837 10.3833C26.5504 11.0833 25.5504 11.6 24.4837 11.85C20.7337 12.7333 16.967 10.4167 16.0837 6.66667C15.967 6.16667 15.9004 5.65 15.9004 5.11667C14.317 5.13334 12.7337 5.4 11.217 5.91667C10.7004 9.53334 12.1004 13.1833 14.917 15.55Z" fill="url(#paint1_linear_601_399)"/>
<path d="M18.1167 6.18333C18.2833 6.88333 18.6167 7.55 19.0667 8.11667C20.75 10.2167 23.8167 10.55 25.9167 8.88333C23.6333 6.83333 20.8667 5.61667 18 5.25C18 5.28333 18 5.31667 18 5.33333C18.0167 5.61667 18.05 5.9 18.1167 6.18333Z" fill="url(#paint2_linear_601_399)"/>
<path d="M11.5668 25.1V19.95H13.6668V26.2C15.0835 26.8 16.5835 27.1667 18.1168 27.2667V22.5167H20.2168V27.25C24.5835 26.9 28.5335 24.5333 30.8668 20.8333C30.9502 19.3833 30.8335 17.9333 30.5002 16.5167C28.8502 18.1167 26.8002 19.2333 24.5668 19.75C17.7502 21.3333 10.9335 17.0833 9.35018 10.2667C9.08351 9.15001 8.98351 7.98334 9.03351 6.83334C7.90018 7.46668 6.83351 8.25001 5.85018 9.16668C3.95018 15.15 6.28351 21.6833 11.5668 25.1Z" fill="url(#paint3_linear_601_399)"/>
<path d="M20.2168 29.3667V34.2167C22.5335 33.5333 24.7168 32.2833 26.5501 30.4667C28.2335 28.7833 29.4168 26.8 30.1335 24.7C27.6835 27.4167 23.9168 29.1167 20.2168 29.3667Z" fill="url(#paint4_linear_601_399)"/>
<path d="M15.9837 29.1167C15.2003 28.95 14.417 28.7333 13.667 28.4667V34.6333C15.1337 34.8667 16.6337 34.8833 18.117 34.6833V29.3833C17.4003 29.3333 16.6837 29.25 15.9837 29.1167Z" fill="url(#paint5_linear_601_399)"/>
<path d="M29.8003 14.2V14.2161C29.8165 14.2161 29.8165 14.2161 29.8003 14.2Z" fill="white"/>
<path d="M20.2167 27.2667V22.5333H18.1167V27.2833C16.5834 27.1833 15.0834 26.8167 13.6667 26.2167V19.9667H11.5667V25.1167C6.2834 21.6833 3.95006 15.15 5.85006 9.16667C5.75006 9.26667 5.65006 9.36667 5.5334 9.46667C4.7334 10.2667 4.05006 11.1333 3.4834 12.0333C2.4334 18.4 5.55006 23.8167 10.6167 26.9833C10.9334 27.1833 11.2501 27.35 11.5667 27.5333V34.1333C12.2501 34.35 12.9501 34.5167 13.6667 34.6333V28.4667C14.4167 28.75 15.2001 28.9667 15.9834 29.1167C16.6834 29.25 17.4001 29.35 18.1001 29.3833V34.6833C18.8167 34.5833 19.5167 34.4333 20.2001 34.2333V29.3833C23.8834 29.1333 27.6501 27.4333 30.1001 24.7167C30.5167 23.4667 30.7667 22.1833 30.8501 20.8833C28.5334 24.55 24.5834 26.9333 20.2167 27.2667Z" fill="white"/>
<path d="M9.35 10.2833C10.9333 17.1 17.75 21.35 24.5667 19.7667C26.8 19.25 28.85 18.1333 30.5 16.5333C30.3167 15.7667 30.0667 15 29.7667 14.2667C26.0167 18.7 19.3833 19.2667 14.9167 15.55C12.1 13.2 10.7167 9.55 11.2333 5.91667C10.4833 6.16667 9.75 6.48334 9.03334 6.86667C8.98334 8.01667 9.1 9.16667 9.35 10.2833Z" fill="white"/>
<path d="M24.5002 11.8333C25.5669 11.5833 26.5502 11.0833 27.4002 10.3667C27.1335 10.05 26.8502 9.75001 26.5669 9.45001C26.3669 9.25001 26.1502 9.05001 25.9502 8.86667C23.8502 10.55 20.7835 10.2 19.1002 8.10001C18.6502 7.53334 18.3169 6.86667 18.1502 6.16667C18.0835 5.88334 18.0502 5.60001 18.0335 5.31667C18.0335 5.28334 18.0335 5.25001 18.0335 5.23334C17.3335 5.13334 16.6335 5.10001 15.9502 5.10001C15.9502 5.61667 16.0169 6.13334 16.1335 6.65001C16.9835 10.4 20.7502 12.7333 24.5002 11.8333Z" fill="white"/>
<path d="M55.5003 13.2167L56.6836 10.8L57.867 13.2167H55.5003ZM58.0003 8.41667H55.3836L50.5503 18.0167H53.1503L54.3336 15.6167H59.067L60.2503 18.0167H62.8336L58.0003 8.41667Z" fill="#263176"/>
<path d="M71.0836 8.41667L68.2503 12.6667L65.4003 8.41667H62.8003L67.0336 14.8V18.0167H69.4336V14.8167L73.6836 8.43334H71.0836V8.41667Z" fill="#263176"/>
<path d="M78.9002 13.2167L80.0835 10.8L81.2669 13.2167H78.9002ZM81.3835 8.41667H78.7835L73.9502 18.0167H76.5335L77.7169 15.6167H82.4502L83.6335 18.0167H86.2169L81.3835 8.41667Z" fill="#263176"/>
<path d="M45.9335 8.41667V12.0167H40.8668V8.41667H38.4668V18.0167H40.8668V14.4167H45.9335V18.0167H48.3335V8.41667H45.9335Z" fill="#263176"/>
<path d="M86.75 8.41667V10.8167H91.15V18.0167H93.55V10.8167H97.95V8.41667H86.75Z" fill="#263176"/>
<path d="M40.8335 23.8H45.8668V21.7333H38.4668V31.3H40.8335V27.8667H45.3168V25.8167H40.8335V23.8Z" fill="#263176"/>
<path d="M50.9169 31.3V24.3833H48.5669V31.3H50.9169Z" fill="#263176"/>
<path d="M63.0166 21.7333H60.6832V27.45L55.8499 21.7333H53.8999V31.3H56.2499V25.7667L61.0832 31.3H63.0166V21.7333Z" fill="#263176"/>
<path d="M75.6335 31.3L71.6335 21.7333H69.2168L65.2168 31.3H67.7501L68.4168 29.5667H72.4335L73.1001 31.3H75.6335ZM71.6501 27.5333H69.2168L70.4335 24.4L71.6501 27.5333Z" fill="#263176"/>
<path d="M87 21.7333H84.6666V27.45L79.8333 21.7333H77.8833V31.3H80.2333V25.7667L85.0666 31.3H87V21.7333Z" fill="#263176"/>
<path d="M93.8504 21.5167C91.617 21.5167 90.067 22.6667 90.067 24.5333C90.067 26.2667 91.267 26.9833 92.6337 27.3L94.6337 27.7333C95.317 27.8833 95.517 28.15 95.517 28.5833C95.517 29.1667 94.9837 29.5667 94.1004 29.5667C93.1504 29.5667 92.467 29.1333 92.217 28.15L89.7837 28.6167C90.0337 30.4833 91.817 31.5167 93.967 31.5167C96.1004 31.5167 97.9004 30.4667 97.9004 28.4167C97.9004 26.9 96.9337 26 95.267 25.6333L93.2837 25.1833C92.6837 25.05 92.517 24.7667 92.517 24.3833C92.517 23.8333 93.017 23.4167 93.8004 23.4167C94.5504 23.4167 95.3004 23.8667 95.467 24.75L97.7837 24.2833C97.4504 22.55 95.9337 21.5167 93.8504 21.5167Z" fill="#263176"/>
<path d="M50.9169 23.7333V21.7167H48.5669V23.7333H50.9169Z" fill="#263176"/>
<defs>
<linearGradient id="paint0_linear_601_399" x1="3.26535" y1="29.1414" x2="20.3649" y2="4.83811" gradientUnits="userSpaceOnUse">
<stop stop-color="#3B3E90"/>
<stop offset="0.35" stop-color="#3B3E90"/>
<stop offset="0.54" stop-color="#1F6C78"/>
<stop offset="0.71" stop-color="#089165"/>
<stop offset="0.8" stop-color="#009F5E"/>
<stop offset="1" stop-color="#009F5E"/>
</linearGradient>
<linearGradient id="paint1_linear_601_399" x1="5.82678" y1="30.9448" x2="22.9263" y2="6.6415" gradientUnits="userSpaceOnUse">
<stop stop-color="#3B3E90"/>
<stop offset="0.35" stop-color="#3B3E90"/>
<stop offset="0.54" stop-color="#1F6C78"/>
<stop offset="0.71" stop-color="#089165"/>
<stop offset="0.8" stop-color="#009F5E"/>
<stop offset="1" stop-color="#009F5E"/>
</linearGradient>
<linearGradient id="paint2_linear_601_399" x1="5.3789" y1="30.6299" x2="22.4784" y2="6.32665" gradientUnits="userSpaceOnUse">
<stop stop-color="#3B3E90"/>
<stop offset="0.35" stop-color="#3B3E90"/>
<stop offset="0.54" stop-color="#1F6C78"/>
<stop offset="0.71" stop-color="#089165"/>
<stop offset="0.8" stop-color="#009F5E"/>
<stop offset="1" stop-color="#009F5E"/>
</linearGradient>
<linearGradient id="paint3_linear_601_399" x1="6.71751" y1="31.5716" x2="23.8171" y2="7.26838" gradientUnits="userSpaceOnUse">
<stop stop-color="#3B3E90"/>
<stop offset="0.35" stop-color="#3B3E90"/>
<stop offset="0.54" stop-color="#1F6C78"/>
<stop offset="0.71" stop-color="#089165"/>
<stop offset="0.8" stop-color="#009F5E"/>
<stop offset="1" stop-color="#009F5E"/>
</linearGradient>
<linearGradient id="paint4_linear_601_399" x1="17.1782" y1="38.9317" x2="34.2777" y2="14.6284" gradientUnits="userSpaceOnUse">
<stop stop-color="#3B3E90"/>
<stop offset="0.35" stop-color="#3B3E90"/>
<stop offset="0.54" stop-color="#1F6C78"/>
<stop offset="0.71" stop-color="#089165"/>
<stop offset="0.8" stop-color="#009F5E"/>
<stop offset="1" stop-color="#009F5E"/>
</linearGradient>
<linearGradient id="paint5_linear_601_399" x1="12.8518" y1="35.8876" x2="29.9514" y2="11.5843" gradientUnits="userSpaceOnUse">
<stop stop-color="#3B3E90"/>
<stop offset="0.35" stop-color="#3B3E90"/>
<stop offset="0.54" stop-color="#1F6C78"/>
<stop offset="0.71" stop-color="#089165"/>
<stop offset="0.8" stop-color="#009F5E"/>
<stop offset="1" stop-color="#009F5E"/>
</linearGradient>
</defs>
</svg>
